<svg width="20" height="20" viewBox="0 0 20 20" fill="none" xmlns="http://www.w3.org/2000/svg">
<path d="M20 10C20 14.8325 15.5225 18.75 10 18.75C9.00951 18.7522 8.02306 18.6236 7.06625 18.3675C6.33625 18.7375 4.66 19.4475 1.84 19.91C1.59 19.95 1.4 19.69 1.49875 19.4575C1.94125 18.4125 2.34125 17.02 2.46125 15.75C0.93 14.2125 0 12.2 0 10C0 5.1675 4.4775 1.25 10 1.25C15.5225 1.25 20 5.1675 20 10ZM6.25 10C6.25 9.66848 6.1183 9.35054 5.88388 9.11612C5.64946 8.88169 5.33152 8.75 5 8.75C4.66848 8.75 4.35054 8.88169 4.11612 9.11612C3.8817 9.35054 3.75 9.66848 3.75 10C3.75 10.3315 3.8817 10.6495 4.11612 10.8839C4.35054 11.1183 4.66848 11.25 5 11.25C5.33152 11.25 5.64946 11.1183 5.88388 10.8839C6.1183 10.6495 6.25 10.3315 6.25 10ZM11.25 10C11.25 9.66848 11.1183 9.35054 10.8839 9.11612C10.6495 8.88169 10.3315 8.75 10 8.75C9.66848 8.75 9.35054 8.88169 9.11612 9.11612C8.8817 9.35054 8.75 9.66848 8.75 10C8.75 10.3315 8.8817 10.6495 9.11612 10.8839C9.35054 11.1183 9.66848 11.25 10 11.25C10.3315 11.25 10.6495 11.1183 10.8839 10.8839C11.1183 10.6495 11.25 10.3315 11.25 10ZM15 11.25C15.3315 11.25 15.6495 11.1183 15.8839 10.8839C16.1183 10.6495 16.25 10.3315 16.25 10C16.25 9.66848 16.1183 9.35054 15.8839 9.11612C15.6495 8.88169 15.3315 8.75 15 8.75C14.6685 8.75 14.3505 8.88169 14.1161 9.11612C13.8817 9.35054 13.75 9.66848 13.75 10C13.75 10.3315 13.8817 10.6495 14.1161 10.8839C14.3505 11.1183 14.6685 11.25 15 11.25Z" fill="#47345B"/>
</svg>
