<svg width="15" height="20" viewBox="0 0 15 20" fill="none" xmlns="http://www.w3.org/2000/svg">
<g clip-path="url(#clip0_12_278)">
<path d="M7.5 0C5.86719 0 4.47656 1.04297 3.96484 2.5H2.5C1.12109 2.5 0 3.62109 0 5V17.5C0 18.8789 1.12109 20 2.5 20H12.5C13.8789 20 15 18.8789 15 17.5V5C15 3.62109 13.8789 2.5 12.5 2.5H11.0352C10.5234 1.04297 9.13281 0 7.5 0ZM7.5 2.5C7.83152 2.5 8.14946 2.6317 8.38388 2.86612C8.6183 3.10054 8.75 3.41848 8.75 3.75C8.75 4.08152 8.6183 4.39946 8.38388 4.63388C8.14946 4.8683 7.83152 5 7.5 5C7.16848 5 6.85054 4.8683 6.61612 4.63388C6.3817 4.39946 6.25 4.08152 6.25 3.75C6.25 3.41848 6.3817 3.10054 6.61612 2.86612C6.85054 2.6317 7.16848 2.5 7.5 2.5ZM5 10C5 9.33696 5.26339 8.70107 5.73223 8.23223C6.20107 7.76339 6.83696 7.5 7.5 7.5C8.16304 7.5 8.79893 7.76339 9.26777 8.23223C9.73661 8.70107 10 9.33696 10 10C10 10.663 9.73661 11.2989 9.26777 11.7678C8.79893 12.2366 8.16304 12.5 7.5 12.5C6.83696 12.5 6.20107 12.2366 5.73223 11.7678C5.26339 11.2989 5 10.663 5 10ZM3.125 16.875C3.125 15.1484 4.52344 13.75 6.25 13.75H8.75C10.4766 13.75 11.875 15.1484 11.875 16.875C11.875 17.2188 11.5938 17.5 11.25 17.5H3.75C3.40625 17.5 3.125 17.2188 3.125 16.875Z" fill="#47345B"/>
</g>
<defs>
<clipPath id="clip0_12_278">
<rect width="15" height="20" fill="white"/>
</clipPath>
</defs>
</svg>
