<svg width="16" height="16" viewBox="0 0 16 16" fill="none" xmlns="http://www.w3.org/2000/svg">
<path fill-rule="evenodd" clip-rule="evenodd" d="M8.34465e-06 15.1111C8.34465e-06 14.8754 0.0766317 14.6493 0.213022 14.4826C0.349412 14.3159 0.534396 14.2222 0.727281 14.2222H15.2727C15.4656 14.2222 15.6506 14.3159 15.787 14.4826C15.9234 14.6493 16 14.8754 16 15.1111C16 15.3469 15.9234 15.573 15.787 15.7397C15.6506 15.9064 15.4656 16 15.2727 16H0.727281C0.534396 16 0.349412 15.9064 0.213022 15.7397C0.0766317 15.573 8.34465e-06 15.3469 8.34465e-06 15.1111ZM8.34465e-06 8C8.34465e-06 7.76425 0.0766317 7.53816 0.213022 7.37146C0.349412 7.20476 0.534396 7.11111 0.727281 7.11111H15.2727C15.4656 7.11111 15.6506 7.20476 15.787 7.37146C15.9234 7.53816 16 7.76425 16 8C16 8.23575 15.9234 8.46184 15.787 8.62854C15.6506 8.79524 15.4656 8.88889 15.2727 8.88889H0.727281C0.534396 8.88889 0.349412 8.79524 0.213022 8.62854C0.0766317 8.46184 8.34465e-06 8.23575 8.34465e-06 8ZM8.34465e-06 0.888889C8.34465e-06 0.653141 0.0766317 0.427049 0.213022 0.26035C0.349412 0.0936507 0.534396 0 0.727281 0H15.2727C15.4656 0 15.6506 0.0936507 15.787 0.26035C15.9234 0.427049 16 0.653141 16 0.888889C16 1.12464 15.9234 1.35073 15.787 1.51743C15.6506 1.68413 15.4656 1.77778 15.2727 1.77778H0.727281C0.534396 1.77778 0.349412 1.68413 0.213022 1.51743C0.0766317 1.35073 8.34465e-06 1.12464 8.34465e-06 0.888889Z" fill="#47345B"/>
</svg>
